<svg xmlns="http://www.w3.org/2000/svg" viewBox="0 0 48 48" width="48" height="48"><path d="M44 24c0 11.044-8.956 20-20 20S4 35.044 4 24 12.956 4 24 4s20 8.956 20 20z" fill="#4caf50"/><path d="M24 4v20l8 4-8.843 16H24c11.053 0 20-8.947 20-20S35.053 4 24 4z" fill="#ffc107"/><path d="M44 24c0 11.044-8.956 20-20 20S4 35.044 4 24 12.956 4 24 4s20 8.956 20 20z" fill="#4caf50"/><path d="M24 4v20l8 4-8.843 16H24c11.053 0 20-8.947 20-20S35.053 4 24 4z" fill="#ffc107"/><path d="M41.84 15H24v13l-3-1L7.16 13.26h-.02C10.68 7.69 16.91 4 24 4c7.8 0 14.55 4.48 17.84 11z" fill="#f44336"/><path d="M7.158 13.264l8.843 14.862L21 27 7.158 13.264z" fill="#dd2c00"/><path d="M23.157 44l8.934-16.059L28 25l-4.843 19z" fill="#558b2f"/><path d="M41.865 15H24l-1.579 4.58L41.865 15z" fill="#f9a825"/><path d="M33 24c0 4.969-4.031 9-9 9s-9-4.031-9-9 4.031-9 9-9 9 4.031 9 9z" fill="#fff"/><path d="M31 24c0 3.867-3.133 7-7 7s-7-3.133-7-7 3.133-7 7-7 7 3.133 7 7z" fill="#2196f3"/></svg>