<svg xmlns="http://www.w3.org/2000/svg" viewBox="0 0 48 48" width="48" height="48"><path d="M43 24c0 10.492-8.508 19-19 19S5 34.492 5 24 13.508 5 24 5s19 8.508 19 19z" fill="#01579b"/><path d="M34 20.8c0-.6 0-2.902-1.5-4.698-.102-.102-.2-.301-.2-.403-.1-.097-.1-.199-.198-.398L31.898 15l-.199-.3c-.199-.302-.3-.5-.3-.5-.399-.598-.5-1.4-.098-2.098.097-.204.3-.403.398-.602-.097-.102-.199-.2-.3-.2H31.3c-.301-.198-.602-.402-.801-.6l-.7-.5c-.5-.302-.8-.4-.8-.5-.7-.4-1.102-1.098-1-1.9.102-.8.602-1.5 1.398-1.698.102 0 .301-.102.5-.102l-.097-.102C28 5.301 26 5 24 5 16.602 5 10.102 9.3 7 15.5v.5c0 7.2 6.3 13 14 13 5.898 0 10.898-3.398 13-8.2z" fill="#0277bd"/><path d="M30 8s.3-.102.898-.102h1c.403 0 .801.102 1.301.204.5.097 1 .296 1.5.5.5.199 1.102.5 1.602.898.5.3 1 .8 1.5 1.2.5.402.898 1 1.3 1.5.297.6.7 1.1 1 1.698.297.602.5 1.204.7 1.801.199.602.3 1.2.398 1.7a8.48 8.48 0 01.102 1.5v.703c0 .199 0 .398-.102.597 0 .403-.097.7-.097 1 0 .5-.102.801-.102.801s-.2-.3-.398-.8c-.102-.2-.301-.5-.403-.9-.097-.3-.3-.698-.5-1.1-.199-.4-.398-.802-.597-1.302-.204-.398-.5-.898-.704-1.398-.199-.5-.5-.898-.796-1.398-.301-.5-.602-.903-.903-1.301-.3-.403-.597-.903-1-1.2-.398-.402-.699-.8-1.097-1.101-.301-.398-.704-.7-1.102-1-.398-.3-.7-.602-1.102-.8-.296-.302-.699-.5-1-.7a9.468 9.468 0 00-.796-.5C30.3 8.2 30 8 30 8z" fill="#fff176"/><path d="M43.102 17.602c-.301-2.204-1.204-4.204-2.204-5.602-.5-.7-1-1.2-1.296-1.5-.403-.3-.602-.5-.602-.5s0 .3.102.8c.097.5.097 1.098.199 1.9.097.402.097.8.199 1.198-.398-.597-.898-1.199-1.398-1.597-.5-.5-1.102-.801-1.403-1C36.2 11.1 36 11 36 11s.102.2.2.602c.1.398.3.898.5 1.597.198.7.5 1.602.8 2.5-.602-.699-1.2-1.3-1.8-1.699-.7-.398-1.302-.7-1.802-.8C33.301 13 33 13 33 13s.2.2.398.602c.102.199.301.398.403.699.199.3.3.597.5.898.3.602.699 1.301 1 2.102.199.398.3.8.5 1.199.097.398.398.8.5 1.3.199.4.3.802.5 1.302.097.398.3.796.398 1.296.102.403.301.801.403 1.204.097.398.199.796.398 1.097.3.7.5 1.301.7 1.7.198.402.3.601.3.601s.102-.2.3-.7c.098-.198.2-.5.2-.8.102-.3.2-.7.2-1.102 0-.296.1-.597.1-.898.098.3.2.5.2.5s.102-.2.3-.602c.098-.199.2-.398.302-.699v-.097c0 .199 0 .5.097.699 0 .398.102.699.102 1v.898c0 .5.097.801.097.801s.204-.2.5-.602c.102-.199.301-.398.5-.699.204-.3.301-.597.5-1 .204-.398.301-.8.403-1.3.097-.5.199-1 .3-1.5.098-.5.098-1.098.098-1.598.102-.602 0-1.2-.097-1.7z" fill="#fdd835"/><path d="M44.102 19.8c0-.5-.102-.8-.102-.8s-.2.3-.5.7c-.3.5-.602 1.1-1 1.902-.3.699-.7 1.5-1.102 2.296 0-.796 0-1.5-.097-2.199-.102-.597-.2-1.097-.301-1.597-.2-.5-.3-1-.5-1.403-.3-.898-.7-1.5-1-2-.3-.5-.5-.699-.5-.699s-.102 1.2-.102 3c0 .898-.097 1.8-.199 2.898 0 .5-.097 1-.097 1.602 0 .5-.102 1.102-.204 1.602v.398c-.097-.898-.398-1.8-.796-2.398a4.823 4.823 0 00-1-1.5C36.199 21.102 36 21 36 21v.7c0 .402 0 1-.102 1.698-.097 1.301-.296 3-.5 4.602-.097.398-.199.8-.199 1.2-.097.402-.199.8-.199 1.198-.102.403-.2.801-.3 1.102-.098.398-.2.7-.2 1-.102.3-.102.7-.2.898-.1.301-.1.5-.198.801C34 34.7 34 35 34 35s.2-.102.602-.398C35 34.3 35.5 34 36 33.398c.2-.296.5-.597.8-1 .2-.398.5-.699.7-1.097 0 .3-.102.597-.102.898-.097.301-.097.7-.199.903C37 33.699 37 34 37 34c.102-.102.398 0 .7.102 0 .097-.098.199-.098.199-.102.3-.204.597-.301.898C37.1 35.7 37 36 37 36s.3-.102.7-.398c.198-.204.5-.301.8-.602.3-.2.602-.5.898-.898.301-.301.602-.704 1-1.102.301-.398.602-.898.903-1.398a19 19 0 001.5-3.204c.398-1.097.8-2.296 1-3.398.199-1.102.3-2.102.398-3 0-.898 0-1.602-.097-2.2z" fill="#ffb300"/><path d="M41.398 30.398c-.398.204-.796.602-1.398 1-.8.602-1.7 1.403-2.602 2.301.102-.3.301-.597.403-.898.3-.903.398-1.7.5-2.403 0-.699 0-1.296-.102-1.699C38.102 28.2 38 28 38 28s-.2.2-.398.5c-.204.3-.602.8-1 1.3-.403.5-.801 1.2-1.204 1.802-.097.097-.097.199-.199.296.2-.597.2-1.296.2-1.898 0-.8-.2-1.602-.399-2.2-.2-.6-.5-1.1-.7-1.402C34.2 26.2 34 26 34 26s-.102.2-.2.602c-.1.296-.3.796-.5 1.398-.198.5-.3 1.102-.5 1.8-.1.302-.198.598-.3 1-.102.302-.2.598-.3.802-1.9 1.898-4.2 2.398-6.4 2.5-1.198 0-2.3-.204-3.3-.5-1.5-.5-2.898-1.403-4.2-2.602 1.9.2 3.7-.2 5.2-.898L26 28.5c.3-.102.602-.102.898 0 .602-.102.801-.398.602-1-.3-.398-.8-.8-1.3-1.102-1.302-.699-2.598-.597-4 .301-1.302.7-2.5.602-3.802-.097C15.301 25 16.5 20.898 19.801 23c.199-1-.102-2.102-.7-3.2-2.902-5.3.399-9.6 1.5-10.3-2 .2-3.8 1.102-5.402 2.602C4.9 10.898 4 20.898 4 21l1.2-1.102c-.4 1.102-.7 2.204-.802 3.403C4 27.199 5.102 31 7.7 34.8 11.7 39.898 18 43 24 43c6.8 0 11.2-2.5 14.102-5.7.199-.198.398-.402.597-.6.602-.7 1.2-1.4 1.7-2.2.5-.7.8-1.5 1.101-2.2.2-.698.398-1.3.5-1.698V30s-.2.102-.602.398z" fill="#ff9800"/><path d="M12 28c-.2-7 4.3-6.398 6.602-5.602C17 22.102 16.3 23.602 17 25c-.3 0-3.398-.3-5 3zm6.3 2.898c1.9.204 3.7-.199 5.2-.898l2.5-1.602c.2-.097.5-.097.7 0-2.9-1.699-6 1.903-12.802.801 1.704 1.301 4.403 1.7 4.403 1.7zM18.103 14.5c-.204 1.5.097 3.3 1.097 5.2C20.602 18.897 22 18 22 18s2-2 0-2c-1.898 0-3.2-.8-3.898-1.5zM10.3 12.398C9.398 11.602 8 10 8 8c0 0-2.398 3.898-1.5 7 .898-1.102 2.2-2 3.8-2.602z" fill="#ef6c00"/><path d="M19.2 19.7C20.601 18.897 22 18 22 18l.398-.398L22 17h-3.8c.198.898.5 1.8 1 2.7z" fill="#ffcc80"/><path d="M22 16c-.3 0-.602 0-.898-.102L21 16s.8 1.3 1 2c0 0 2-2 0-2z" fill="#5d4037"/></svg>