<svg xmlns="http://www.w3.org/2000/svg" width="46" height="46" viewBox="0 0 46 46">
  <path id="linkedin" d="M-115,46a22.855,22.855,0,0,1-8.953-1.807,22.923,22.923,0,0,1-7.311-4.929,22.923,22.923,0,0,1-4.929-7.311A22.855,22.855,0,0,1-138,23a22.857,22.857,0,0,1,1.807-8.953,22.924,22.924,0,0,1,4.929-7.311,22.923,22.923,0,0,1,7.311-4.929A22.855,22.855,0,0,1-115,0a22.856,22.856,0,0,1,8.953,1.808,22.924,22.924,0,0,1,7.311,4.929,22.924,22.924,0,0,1,4.929,7.311A22.856,22.856,0,0,1-92,23a22.854,22.854,0,0,1-1.808,8.952,22.924,22.924,0,0,1-4.929,7.311,22.925,22.925,0,0,1-7.311,4.929A22.856,22.856,0,0,1-115,46Zm5.365-23.392a2.523,2.523,0,0,1,2.234,1.05,5.135,5.135,0,0,1,.715,2.905v9.359h5.81V25.892a8.443,8.443,0,0,0-1.837-5.871,6.3,6.3,0,0,0-4.856-2,7.027,7.027,0,0,0-2.021.274,4.612,4.612,0,0,0-1.536.768,7.655,7.655,0,0,0-1,.919,7.752,7.752,0,0,0-.688.933V18.423h-5.81l.018.848c.012.556.017,2.266.017,5.226,0,2.905-.012,6.75-.035,11.425h5.81V26.158a4.293,4.293,0,0,1,.194-1.431,3.772,3.772,0,0,1,1.121-1.509A2.874,2.874,0,0,1-109.635,22.608Zm-18.029-4.185v17.5h5.827v-17.5ZM-124.716,10a3.337,3.337,0,0,0-2.375.857A2.856,2.856,0,0,0-128,13.019a2.907,2.907,0,0,0,.883,2.155,3.2,3.2,0,0,0,2.331.865h.035a3.339,3.339,0,0,0,2.392-.865,2.807,2.807,0,0,0,.892-2.155,2.956,2.956,0,0,0-.9-2.163A3.242,3.242,0,0,0-124.716,10Z" transform="translate(138)" fill="#ffdc00"/>
</svg>
