<svg xmlns="http://www.w3.org/2000/svg" width="46" height="46" viewBox="0 0 46 46">
  <path id="twitter" d="M-46,46a22.856,22.856,0,0,1-8.953-1.807,22.925,22.925,0,0,1-7.311-4.929,22.924,22.924,0,0,1-4.929-7.311A22.854,22.854,0,0,1-69,23a22.856,22.856,0,0,1,1.808-8.953,22.924,22.924,0,0,1,4.929-7.311,22.924,22.924,0,0,1,7.311-4.929A22.856,22.856,0,0,1-46,0a22.855,22.855,0,0,1,8.953,1.808,22.923,22.923,0,0,1,7.311,4.929,22.924,22.924,0,0,1,4.929,7.311A22.857,22.857,0,0,1-23,23a22.855,22.855,0,0,1-1.807,8.952,22.923,22.923,0,0,1-4.929,7.311,22.923,22.923,0,0,1-7.311,4.929A22.855,22.855,0,0,1-46,46ZM-58.594,31.977h0a15.305,15.305,0,0,0,8.423,2.461,16.116,16.116,0,0,0,5.485-.925,14.006,14.006,0,0,0,4.381-2.48,16.669,16.669,0,0,0,3.134-3.575,16,16,0,0,0,1.961-4.219,15.656,15.656,0,0,0,.645-4.407c0-.324-.006-.557-.017-.713a11.56,11.56,0,0,0,2.751-2.836,10.994,10.994,0,0,1-3.159.849,5.349,5.349,0,0,0,2.412-3.022,10.807,10.807,0,0,1-3.481,1.324A5.311,5.311,0,0,0-40.067,12.7a5.309,5.309,0,0,0-3.881,1.6,5.306,5.306,0,0,0-1.6,3.88,6.1,6.1,0,0,0,.136,1.256,15.343,15.343,0,0,1-6.309-1.689,15.626,15.626,0,0,1-5-4.05,5.392,5.392,0,0,0-.747,2.767,5.374,5.374,0,0,0,.662,2.615,5.5,5.5,0,0,0,1.784,1.953,5.468,5.468,0,0,1-2.479-.7v.068A5.32,5.32,0,0,0-56.259,23.9a5.413,5.413,0,0,0,3.15,1.894,5.684,5.684,0,0,1-1.444.187,6.974,6.974,0,0,1-1.036-.085,5.388,5.388,0,0,0,1.936,2.709,5.371,5.371,0,0,0,3.192,1.1,10.786,10.786,0,0,1-6.809,2.344A11.647,11.647,0,0,1-58.594,31.977Z" transform="translate(69)" fill="#ffdc00"/>
</svg>
