<svg xmlns="http://www.w3.org/2000/svg" width="46" height="46" viewBox="0 0 46 46"><path d="M23 46a22.855 22.855 0 01-8.953-1.807 22.923 22.923 0 01-7.311-4.929 22.923 22.923 0 01-4.929-7.311A22.855 22.855 0 010 23a22.857 22.857 0 011.807-8.953 22.924 22.924 0 014.929-7.311 22.923 22.923 0 017.311-4.929A22.855 22.855 0 0123 0a22.856 22.856 0 018.953 1.808 22.924 22.924 0 017.311 4.929 22.924 22.924 0 014.929 7.311A22.856 22.856 0 0146 23a22.854 22.854 0 01-1.808 8.952 22.924 22.924 0 01-4.929 7.311 22.925 22.925 0 01-7.311 4.929A22.856 22.856 0 0123 46zm5.365-23.392a2.523 2.523 0 012.234 1.05 5.135 5.135 0 01.715 2.905v9.359h5.81v-10.03a8.443 8.443 0 00-1.837-5.871 6.3 6.3 0 00-4.856-2 7.027 7.027 0 00-2.021.274 4.612 4.612 0 00-1.536.768 7.655 7.655 0 00-1 .919 7.752 7.752 0 00-.688.933v-2.492h-5.81l.018.848c.012.556.017 2.266.017 5.226 0 2.905-.012 6.75-.035 11.425h5.81v-9.764a4.293 4.293 0 01.194-1.431 3.772 3.772 0 011.121-1.509 2.874 2.874 0 011.864-.61zm-18.029-4.185v17.5h5.827v-17.5zM13.284 10a3.337 3.337 0 00-2.375.857A2.856 2.856 0 0010 13.019a2.907 2.907 0 00.883 2.155 3.2 3.2 0 002.331.865h.035a3.339 3.339 0 002.392-.865 2.807 2.807 0 00.892-2.155 2.956 2.956 0 00-.9-2.163A3.242 3.242 0 0013.284 10z" fill="#ffdc00"/></svg>