<svg xmlns="http://www.w3.org/2000/svg" width="46" height="46" viewBox="0 0 46 46"><path d="M23 46a22.856 22.856 0 01-8.953-1.807 22.925 22.925 0 01-7.311-4.929 22.924 22.924 0 01-4.929-7.311A22.854 22.854 0 010 23a22.856 22.856 0 011.808-8.953 22.924 22.924 0 014.929-7.311 22.924 22.924 0 017.311-4.929A22.856 22.856 0 0123 0a22.855 22.855 0 018.953 1.808 22.923 22.923 0 017.311 4.929 22.924 22.924 0 014.929 7.311A22.857 22.857 0 0146 23a22.855 22.855 0 01-1.807 8.952 22.923 22.923 0 01-4.929 7.311 22.923 22.923 0 01-7.311 4.929A22.855 22.855 0 0123 46zM10.406 31.977a15.305 15.305 0 008.423 2.461 16.116 16.116 0 005.485-.925 14.006 14.006 0 004.381-2.48 16.669 16.669 0 003.134-3.575 16 16 0 001.961-4.219 15.656 15.656 0 00.645-4.407c0-.324-.006-.557-.017-.713a11.56 11.56 0 002.751-2.836 10.994 10.994 0 01-3.159.849 5.349 5.349 0 002.412-3.022 10.807 10.807 0 01-3.481 1.324 5.311 5.311 0 00-4.008-1.734 5.309 5.309 0 00-3.881 1.6 5.306 5.306 0 00-1.6 3.88 6.1 6.1 0 00.136 1.256 15.343 15.343 0 01-6.309-1.689 15.626 15.626 0 01-5-4.05 5.392 5.392 0 00-.747 2.767 5.374 5.374 0 00.662 2.615 5.5 5.5 0 001.784 1.953 5.468 5.468 0 01-2.479-.7v.068a5.32 5.32 0 001.242 3.5 5.413 5.413 0 003.15 1.894 5.684 5.684 0 01-1.444.187 6.974 6.974 0 01-1.036-.085 5.388 5.388 0 001.936 2.709 5.371 5.371 0 003.192 1.1 10.786 10.786 0 01-6.809 2.344 11.647 11.647 0 01-1.324-.072z" fill="#ffdc00"/></svg>